{
    "asset" : {
        "generator" : "Khronos glTF Blender I/O v1.5.17",
        "version" : "2.0"
    },
    "scene" : 0,
    "scenes" : [
        {
            "name" : "Scene",
            "nodes" : [
                0
            ]
        }
    ],
    "nodes" : [
        {
            "mesh" : 0,
            "name" : "A",
            "rotation" : [
                0.7071068286895752,
                0,
                0,
                0.7071067094802856
            ]
        }
    ],
    "meshes" : [
        {
            "name" : "A",
            "primitives" : [
                {
                    "attributes" : {
                        "POSITION" : 0,
                        "NORMAL" : 1
                    },
                    "indices" : 2
                },
                {
                    "attributes" : {
                        "POSITION" : 3,
                        "NORMAL" : 4
                    },
                    "indices" : 5
                }
            ]
        }
    ],
    "accessors" : [
        {
            "bufferView" : 0,
            "componentType" : 5126,
            "count" : 12993,
            "max" : [
                0.3458973467350006,
                0.7522196769714355,
                -0.12559625506401062
            ],
            "min" : [
                -0.3458954393863678,
                -0.827628493309021,
                -0.5600003004074097
            ],
            "type" : "VEC3"
        },
        {
            "bufferView" : 1,
            "componentType" : 5126,
            "count" : 12993,
            "type" : "VEC3"
        },
        {
            "bufferView" : 2,
            "componentType" : 5123,
            "count" : 77136,
            "type" : "SCALAR"
        },
        {
            "bufferView" : 3,
            "componentType" : 5126,
            "count" : 11961,
            "max" : [
                0.34600093960762024,
                0.7523301839828491,
                -3.119114637684106e-07
            ],
            "min" : [
                -0.3459990620613098,
                -0.8276697993278503,
                -0.5594271421432495
            ],
            "type" : "VEC3"
        },
        {
            "bufferView" : 4,
            "componentType" : 5126,
            "count" : 11961,
            "type" : "VEC3"
        },
        {
            "bufferView" : 5,
            "componentType" : 5123,
            "count" : 70944,
            "type" : "SCALAR"
        }
    ],
    "bufferViews" : [
        {
            "buffer" : 0,
            "byteLength" : 155916,
            "byteOffset" : 0
        },
        {
            "buffer" : 0,
            "byteLength" : 155916,
            "byteOffset" : 155916
        },
        {
            "buffer" : 0,
            "byteLength" : 154272,
            "byteOffset" : 311832
        },
        {
            "buffer" : 0,
            "byteLength" : 143532,
            "byteOffset" : 466104
        },
        {
            "buffer" : 0,
            "byteLength" : 143532,
            "byteOffset" : 609636
        },
        {
            "buffer" : 0,
            "byteLength" : 141888,
            "byteOffset" : 753168
        }
    ],
    "buffers" : [
        {
            "byteLength" : 895056,
            "uri" : "data:application/octet-stream;base64,"
        }
    ]
}
